<?xml version="1.0" encoding="utf-8"?>
<!-- Generator: Adobe Illustrator 23.0.1, SVG Export Plug-In . SVG Version: 6.00 Build 0)  -->
<svg version="1.1" id="R" xmlns="http://www.w3.org/2000/svg" xmlns:xlink="http://www.w3.org/1999/xlink" x="0px" y="0px"
	 viewBox="0 0 216 318.1" style="enable-background:new 0 0 216 318.1;" xml:space="preserve">
<style type="text/css">
	.st0{fill:#00CC6A;}
	.st1{opacity:0.5;fill:url(#SVGID_1_);}
	.st2{fill:none;stroke:#AA2500;stroke-width:5.000000e-02;stroke-miterlimit:10;}
</style>
<path class="st0" d="M110.2,2.2L110.2,2.2l-69.9,0c-6.5,0-8.1,3.6-8.1,3.6S7.7,50.8,3.5,57.3c-2.1,3.3-1.3,5.6,0,7.2
	c1.3,1.5,3.3,2.3,5.3,2.3l101.3,0c21.3,0,38.6,17.3,38.6,38.6S131.5,144,110.2,144l-75.9,0.1l0.7,64.4h75.2
	c56.9,0,103.1-46.2,103.1-103.1C213.3,48.4,167.1,2.2,110.2,2.2z"/>
<linearGradient id="SVGID_1_" gradientUnits="userSpaceOnUse" x1="169.7445" y1="58.9123" x2="72.7852" y2="226.8507">
	<stop  offset="0" style="stop-color:#00CC6A;stop-opacity:0"/>
	<stop  offset="0.1018" style="stop-color:#00C164;stop-opacity:0.1018"/>
	<stop  offset="0.2787" style="stop-color:#00A556;stop-opacity:0.2787"/>
	<stop  offset="0.5095" style="stop-color:#00773E;stop-opacity:0.5095"/>
	<stop  offset="0.7821" style="stop-color:#00381D;stop-opacity:0.7821"/>
	<stop  offset="1" style="stop-color:#000000"/>
</linearGradient>
<path class="st1" d="M148.8,105.4c0,21.3-17.3,38.6-38.6,38.6l-75.9,0.1l6.7,64.4h69.2c56.9,0,103.1-46.2,103.1-103.1
	C213.3,48.4,148.8,84,148.8,105.4z"/>
<path class="st0" d="M34.3,144.1L211,308.3c0.4,0.4,0.7,0.8,1,1.2c1.1,1.6,3,5.2-0.6,6.1c-4.6,1.1-94.3,0-94.3,0s-2,0.3-6-3.1
	c-4.1-3.4-106.8-103-106.8-103s-4-3.4-0.7-9C7.6,193.8,34.3,144.1,34.3,144.1z"/>
<path class="st2" d="M-10,195.6"/>
<path class="st2" d="M19.1,223.7"/>
</svg>
